<svg width="22" height="22" viewBox="0 0 22 22" fill="none" xmlns="http://www.w3.org/2000/svg">
<path d="M11.0001 0C6.72875 0 3.25391 3.52945 3.25391 7.86754V14.1327C3.25391 18.4708 6.72875 22 11.0001 22C15.2711 22 18.7462 18.4815 18.7462 14.1567V7.86754C18.7462 3.52945 15.2711 0 11.0001 0ZM17.2892 14.1567C17.2892 17.6782 14.4681 20.5431 11.0001 20.5431C7.53226 20.5431 4.71089 17.6673 4.71089 14.1325V7.86754C4.71089 4.33271 7.53226 1.45694 11.0001 1.45694C14.4681 1.45694 17.2892 4.33271 17.2892 7.86754V14.1567Z" fill="#B3B3B3"/>
<path d="M11 6.02148C10.5976 6.02148 10.2715 6.34762 10.2715 6.74998V9.29966C10.2715 9.70202 10.5976 10.0281 11 10.0281C11.4023 10.0281 11.7285 9.70202 11.7285 9.29966V6.74998C11.7285 6.34762 11.4023 6.02148 11 6.02148Z" fill="#B3B3B3"/>
</svg>
