<svg width="22" height="22" viewBox="0 0 22 22" fill="none" xmlns="http://www.w3.org/2000/svg">
<g clip-path="url(#clip0)">
<path d="M13.0816 3.26515C13.0816 2.11553 12.1497 1.18359 11 1.18359C9.85042 1.18359 8.91848 2.11553 8.91848 3.26515V10.2037C7.00341 10.206 5.45152 11.7579 5.44922 13.6729V17.3858L8.22463 20.855V21.9992H9.61234V20.3679L6.83693 16.8987V13.6729C6.83693 12.5233 7.76886 11.5914 8.91848 11.5914V16.4484H10.3062V3.26515C10.3062 2.88193 10.6168 2.5713 11 2.5713C11.3833 2.5713 11.6939 2.88193 11.6939 3.26515V9.34608L13.9628 9.965L14.3278 8.62586L13.0788 8.28587L13.0816 3.26515Z" fill="#B3B3B3"/>
<path d="M15.3008 10.3344L16.6396 10.6992L17.0045 9.36035L15.6656 8.99552L15.3008 10.3344Z" fill="#B3B3B3"/>
<path d="M17.9789 11.0611L19.3257 11.4288V17.6062L17.2441 20.3816V22.0004H18.6318V20.8437L20.7134 18.0683V10.3686L18.3439 9.72266L17.9789 11.0611Z" fill="#B3B3B3"/>
<path d="M3.85791 0.981108L2.8768 0L0.304688 2.57211L2.8768 5.14423L3.85791 4.16312L2.96076 3.26597H4.75506V1.87826H2.96076L3.85791 0.981108Z" fill="#B3B3B3"/>
<path d="M7.53028 1.87695H6.14258V3.26466H7.53028V1.87695Z" fill="#B3B3B3"/>
<path d="M18.1413 4.16312L19.1224 5.14423L21.6945 2.57211L19.1224 0L18.1413 0.981108L19.0384 1.87826H17.2441V3.26597H19.0384L18.1413 4.16312Z" fill="#B3B3B3"/>
<path d="M15.8565 1.87695H14.4688V3.26466H15.8565V1.87695Z" fill="#B3B3B3"/>
</g>
<defs>
<clipPath id="clip0">
<rect width="22" height="22" fill="white"/>
</clipPath>
</defs>
</svg>
