<svg width="100" height="73" viewBox="0 0 100 73" fill="none" xmlns="http://www.w3.org/2000/svg">
<path d="M91.5258 42.0993V51.0137C91.5258 62.4859 82.6991 71.8143 71.8564 71.8143C67.4901 71.805 63.2652 70.2912 59.9155 67.5359C59.8363 67.4702 59.7524 67.4045 59.6748 67.3327C62.2937 64.725 65.0673 62.2724 67.9812 59.9876C68.2337 60.1133 68.493 60.2255 68.7578 60.3237C69.7465 60.6958 70.7962 60.8864 71.8548 60.886C76.9958 60.886 81.1863 56.4549 81.1863 51.0167V49.9471L85.4591 46.7078L91.5258 42.0993ZM31.6849 59.7752C30.5724 60.2525 29.3729 60.5026 28.1592 60.5102C23.0104 60.5102 18.8214 56.079 18.8214 50.6424V50.0082L14.5486 46.7689L8.48192 42.165V50.6393C8.48192 62.1115 17.3102 71.4399 28.1592 71.4399C32.4048 71.4298 36.5199 69.9955 39.8251 67.3739C39.909 67.3067 39.9991 67.2349 40.0829 67.1646C37.4464 64.528 34.6414 62.0598 31.6849 59.7752ZM80.5433 10.5447C80.5433 10.5447 74.6738 15.7399 70.5564 15.4541C66.4389 15.1684 61.4547 9.10073 61.4547 9.10073C61.4547 9.10073 54.8226 15.3732 50.0016 15.4541C45.0314 15.5382 38.5484 9.10073 38.5484 9.10073C38.5484 9.10073 33.558 15.1669 29.4468 15.4541C25.3355 15.7414 19.4598 10.5447 19.4598 10.5447L15.3485 16.895C15.3485 16.895 22.1484 22.7473 25.8108 31.9382L29.5803 34.7925C35.4349 39.2079 42.6029 41.6068 49.9798 41.6195H50.0016C57.3869 41.6323 64.5654 39.22 70.3995 34.7649L74.225 31.8618C77.8998 22.7136 84.6592 16.895 84.6592 16.895L80.5433 10.5447ZM99.9752 16.3633L99.9254 16.3236L99.8742 16.3633L87.6709 25.6199L83.5192 28.766L72.6314 37.0172L72.3456 37.2327C69.9206 39.077 67.2705 40.6154 64.457 41.8121C63.9911 42.0046 63.5391 42.1925 63.0747 42.3637C63.0711 42.3625 63.0673 42.3625 63.0638 42.3637C62.7532 42.4798 62.4534 42.5898 62.1443 42.6953C62.1078 42.71 62.0705 42.7228 62.0325 42.7335C61.7576 42.8267 61.478 42.9199 61.1984 43.0039C60.9189 43.0879 60.6331 43.1796 60.3473 43.2621C58.1697 43.898 55.9363 44.3313 53.6764 44.5564C53.2834 44.5961 52.8998 44.6282 52.5115 44.6511L51.9958 44.6832C51.3466 44.7168 50.6958 44.7382 50.0466 44.7382H49.9689C49.621 44.7382 49.2793 44.7382 48.9314 44.7229C48.8475 44.7229 48.7761 44.7229 48.686 44.7229C48.4173 44.7122 48.1424 44.7015 47.8675 44.6847C47.8349 44.6847 47.7945 44.6847 47.7619 44.6847C47.633 44.6847 47.504 44.6679 47.3751 44.6572C47.1064 44.6404 46.8377 44.619 46.569 44.5976C46.232 44.564 45.8965 44.5304 45.5548 44.4861C45.3529 44.4647 45.1463 44.4372 44.9335 44.4097C44.8279 44.399 44.7207 44.3822 44.6151 44.3654C44.4412 44.3378 44.2625 44.3165 44.0886 44.2828C43.9985 44.2721 43.9084 44.2553 43.8199 44.2385C43.5382 44.1947 43.2582 44.1438 42.9796 44.0857C42.6208 44.0185 42.2621 43.9421 41.9033 43.8657C41.6346 43.8046 41.3612 43.7435 41.0863 43.6716C40.8953 43.6273 40.7058 43.5784 40.5085 43.5188C40.128 43.4195 39.7428 43.3156 39.3607 43.1995C39.0811 43.117 38.8062 43.0345 38.5329 42.9397C38.1119 42.8083 37.6973 42.6647 37.2903 42.5104C36.9548 42.3942 36.624 42.2674 36.2932 42.136C36.0089 42.026 35.7232 41.9099 35.4436 41.783C35.2572 41.7112 35.0786 41.6302 34.9 41.5523C34.6468 41.4408 34.4014 41.3262 34.1544 41.21C33.9696 41.1214 33.7848 41.0343 33.6 40.9396C33.0237 40.6584 32.4522 40.362 31.8915 40.0472C31.5327 39.844 31.1754 39.6347 30.8167 39.4192C30.3849 39.161 29.9531 38.8844 29.5291 38.6033C29.1051 38.3221 28.6764 38.0257 28.2617 37.7277L27.6404 37.2693L27.395 37.0814L16.4948 28.8302L12.2608 25.6214L0 16.322V25.1065C0.00183121 25.6292 0.0319018 26.1515 0.0900845 26.6712C0.122701 26.9294 0.161531 27.1891 0.206573 27.4352C0.295421 27.9451 0.413654 28.4496 0.560698 28.9463C0.638357 29.1939 0.716016 29.4353 0.806101 29.6783C0.896185 29.9212 0.98627 30.1642 1.08723 30.4086C1.18818 30.6531 1.29535 30.8762 1.41184 31.1085C2.34336 32.9734 3.69852 34.6025 5.37245 35.8697L8.47881 38.2213L16.4886 44.2996L18.8183 46.0675L29.4374 54.1231L32.8995 56.7513C33.4089 57.1379 33.9246 57.5351 34.4231 57.9309C34.4231 57.9309 34.4231 57.9309 34.434 57.9309C34.8316 58.2441 35.223 58.5589 35.6098 58.8844C35.8738 59.0937 36.1316 59.3076 36.3864 59.5292C37.1039 60.1231 37.8101 60.7343 38.5049 61.3628C38.7457 61.5721 38.9802 61.7815 39.2163 62.0015L39.7024 62.4477C39.9556 62.6799 40.2072 62.9061 40.4588 63.1536C41.1034 63.7648 41.7417 64.376 42.363 65.004C42.6659 65.302 42.9625 65.5999 43.2483 65.8979C43.618 66.2722 43.9814 66.6527 44.3356 67.0316L49.9534 73L54.9484 67.6658C55.4144 67.1707 55.8803 66.6848 56.3556 66.2004C56.702 65.8413 57.0545 65.4899 57.4133 65.1308C57.6541 64.8833 57.9072 64.6342 58.1589 64.3928C58.4943 64.0673 58.8314 63.7419 59.1669 63.4225C60.5942 62.0733 62.062 60.7607 63.5748 59.5002C63.8047 59.3061 64.0408 59.1075 64.2753 58.9149C64.6279 58.6292 64.9742 58.348 65.3283 58.0669C65.5007 57.9294 65.6747 57.7857 65.8487 57.6528C66.3301 57.2677 66.8178 56.8888 67.3102 56.519L70.1556 54.3584L81.1832 46.0003L83.513 44.2263L91.5165 38.154L94.6229 35.7948C96.2963 34.5266 97.6513 32.8973 98.5836 31.0326C99.5159 29.1678 100 27.1174 100 25.0393V16.3893L99.9752 16.3633ZM50.0124 11.5853C51.1764 11.5825 52.3135 11.2405 53.28 10.6022C54.2465 9.96401 54.999 9.05829 55.4425 7.9995C55.886 6.94071 56.0005 5.77636 55.7716 4.65356C55.5427 3.53077 54.9807 2.49991 54.1565 1.69123C53.3323 0.882554 52.283 0.332344 51.1411 0.110119C49.9992 -0.112106 48.8159 0.00362566 47.7409 0.442692C46.6658 0.881758 45.7471 1.62446 45.1009 2.57695C44.4548 3.52944 44.11 4.64899 44.1103 5.79415C44.1105 6.55588 44.2635 7.31009 44.5603 8.0136C44.8572 8.71712 45.2922 9.35612 45.8404 9.89404C46.3886 10.432 47.0393 10.8582 47.7552 11.1484C48.4711 11.4386 49.2381 11.5871 50.0124 11.5853Z" fill="#E8E8E8"/>
</svg>
